<svg width="1460" height="752" aria-label="A chart." style="overflow: hidden;"><defs id="_ABSTRACT_RENDERER_ID_46"><clipPath id="_ABSTRACT_RENDERER_ID_47"><rect x="70" y="144" width="1340" height="465"></rect></clipPath></defs><rect x="0" y="0" width="1460" height="752" stroke="none" stroke-width="0" fill="#ffffff"></rect><g><rect x="70" y="102" width="404" height="16" stroke="none" stroke-width="0" fill-opacity="0" fill="#ffffff"></rect><g column-id="a"><rect x="70" y="102" width="84" height="16" stroke="none" stroke-width="0" fill-opacity="0" fill="#ffffff"></rect><g><text text-anchor="start" x="108" y="115.6" font-family="Arial" font-size="16" stroke="none" stroke-width="0" fill="#222222">Recon</text></g><path d="M70,110L102,110" stroke="#0000ff" stroke-width="1.5" fill-opacity="1" fill="none"></path></g><g column-id="b"><rect x="180" y="102" width="70" height="16" stroke="none" stroke-width="0" fill-opacity="0" fill="#ffffff"></rect><g><text text-anchor="start" x="218" y="115.6" font-family="Arial" font-size="16" stroke="none" stroke-width="0" fill="#222222">Raw</text></g><path d="M180,110L212,110" stroke="#1974d2" stroke-width="1" fill-opacity="1" fill="none"></path><circle cx="196" cy="110" r="2.5" stroke="none" stroke-width="0" fill="#1974d2"></circle></g><g column-id="c"><rect x="276" y="102" width="61" height="16" stroke="none" stroke-width="0" fill-opacity="0" fill="#ffffff"></rect><g><text text-anchor="start" x="314" y="115.6" font-family="Arial" font-size="16" stroke="none" stroke-width="0" fill="#222222">QA</text></g><path d="M276,110L308,110" stroke="none" stroke-width="0" fill-opacity="1" fill="none"></path><circle cx="292" cy="110" r="2.5" stroke="none" stroke-width="0" fill="#808080"></circle></g><g column-id="d"><rect x="363" y="102" width="111" height="16" stroke="none" stroke-width="0" fill-opacity="0" fill="#ffffff"></rect><g><text text-anchor="start" x="401" y="115.6" font-family="Arial" font-size="16" stroke="none" stroke-width="0" fill="#222222">Valid Obs.</text></g><path d="M363,110L395,110" stroke="none" stroke-width="0" fill-opacity="1" fill="none"></path><path d="M380.7677669529664,108.23223304703363L380.7677669529664,111.76776695296637L377.2322330470336,111.76776695296637L377.2322330470336,108.23223304703363Z" stroke="none" stroke-width="0" fill="#ff0099"></path></g></g><g><rect x="70" y="144" width="1340" height="465" stroke="none" stroke-width="0" fill-opacity="0" fill="#ffffff"></rect><g clip-path="url(https://code.earthengine.google.com/7b30903af9632265e8f1703554897420#_ABSTRACT_RENDERER_ID_47)"><g><rect x="93" y="144" width="1" height="465" stroke="none" stroke-width="0" fill="#ebebeb"></rect><rect x="155" y="144" width="1" height="465" stroke="none" stroke-width="0" fill="#ebebeb"></rect><rect x="215" y="144" width="1" height="465" stroke="none" stroke-width="0" fill="#ebebeb"></rect><rect x="277" y="144" width="1" height="465" stroke="none" stroke-width="0" fill="#ebebeb"></rect><rect x="337" y="144" width="1" height="465" stroke="none" stroke-width="0" fill="#ebebeb"></rect><rect x="399" y="144" width="1" height="465" stroke="none" stroke-width="0" fill="#ebebeb"></rect><rect x="461" y="144" width="1" height="465" stroke="none" stroke-width="0" fill="#ebebeb"></rect><rect x="521" y="144" width="1" height="465" stroke="none" stroke-width="0" fill="#ebebeb"></rect><rect x="583" y="144" width="1" height="465" stroke="none" stroke-width="0" fill="#ebebeb"></rect><rect x="643" y="144" width="1" height="465" stroke="none" stroke-width="0" fill="#ebebeb"></rect><rect x="705" y="144" width="1" height="465" stroke="none" stroke-width="0" fill="#ebebeb"></rect><rect x="705" y="144" width="1" height="465" stroke="none" stroke-width="0" fill="#cccccc"></rect><rect x="767" y="144" width="1" height="465" stroke="none" stroke-width="0" fill="#ebebeb"></rect><rect x="823" y="144" width="1" height="465" stroke="none" stroke-width="0" fill="#ebebeb"></rect><rect x="885" y="144" width="1" height="465" stroke="none" stroke-width="0" fill="#ebebeb"></rect><rect x="945" y="144" width="1" height="465" stroke="none" stroke-width="0" fill="#ebebeb"></rect><rect x="1007" y="144" width="1" height="465" stroke="none" stroke-width="0" fill="#ebebeb"></rect><rect x="1067" y="144" width="1" height="465" stroke="none" stroke-width="0" fill="#ebebeb"></rect><rect x="1129" y="144" width="1" height="465" stroke="none" stroke-width="0" fill="#ebebeb"></rect><rect x="1190" y="144" width="1" height="465" stroke="none" stroke-width="0" fill="#ebebeb"></rect><rect x="1250" y="144" width="1" height="465" stroke="none" stroke-width="0" fill="#ebebeb"></rect><rect x="1312" y="144" width="1" height="465" stroke="none" stroke-width="0" fill="#ebebeb"></rect><rect x="1372" y="144" width="1" height="465" stroke="none" stroke-width="0" fill="#ebebeb"></rect><rect x="70" y="608" width="1340" height="1" stroke="none" stroke-width="0" fill="#cccccc"></rect><rect x="70" y="556" width="1340" height="1" stroke="none" stroke-width="0" fill="#cccccc"></rect><rect x="70" y="505" width="1340" height="1" stroke="none" stroke-width="0" fill="#cccccc"></rect><rect x="70" y="453" width="1340" height="1" stroke="none" stroke-width="0" fill="#cccccc"></rect><rect x="70" y="402" width="1340" height="1" stroke="none" stroke-width="0" fill="#cccccc"></rect><rect x="70" y="350" width="1340" height="1" stroke="none" stroke-width="0" fill="#cccccc"></rect><rect x="70" y="299" width="1340" height="1" stroke="none" stroke-width="0" fill="#cccccc"></rect><rect x="70" y="247" width="1340" height="1" stroke="none" stroke-width="0" fill="#cccccc"></rect><rect x="70" y="196" width="1340" height="1" stroke="none" stroke-width="0" fill="#cccccc"></rect><rect x="70" y="144" width="1340" height="1" stroke="none" stroke-width="0" fill="#cccccc"></rect><rect x="70" y="582" width="1340" height="1" stroke="none" stroke-width="0" fill="#ebebeb"></rect><rect x="70" y="531" width="1340" height="1" stroke="none" stroke-width="0" fill="#ebebeb"></rect><rect x="70" y="479" width="1340" height="1" stroke="none" stroke-width="0" fill="#ebebeb"></rect><rect x="70" y="428" width="1340" height="1" stroke="none" stroke-width="0" fill="#ebebeb"></rect><rect x="70" y="376" width="1340" height="1" stroke="none" stroke-width="0" fill="#ebebeb"></rect><rect x="70" y="324" width="1340" height="1" stroke="none" stroke-width="0" fill="#ebebeb"></rect><rect x="70" y="273" width="1340" height="1" stroke="none" stroke-width="0" fill="#ebebeb"></rect><rect x="70" y="221" width="1340" height="1" stroke="none" stroke-width="0" fill="#ebebeb"></rect><rect x="70" y="170" width="1340" height="1" stroke="none" stroke-width="0" fill="#ebebeb"></rect><rect x="70" y="608" width="1340" height="1" stroke="none" stroke-width="0" fill="#cccccc"></rect><rect x="70" y="531" width="1340" height="1" stroke="none" stroke-width="0" fill="#cccccc"></rect><rect x="70" y="453" width="1340" height="1" stroke="none" stroke-width="0" fill="#cccccc"></rect><rect x="70" y="376" width="1340" height="1" stroke="none" stroke-width="0" fill="#cccccc"></rect><rect x="70" y="299" width="1340" height="1" stroke="none" stroke-width="0" fill="#cccccc"></rect><rect x="70" y="221" width="1340" height="1" stroke="none" stroke-width="0" fill="#cccccc"></rect><rect x="70" y="144" width="1340" height="1" stroke="none" stroke-width="0" fill="#cccccc"></rect><rect x="70" y="569" width="1340" height="1" stroke="none" stroke-width="0" fill="#ebebeb"></rect><rect x="70" y="492" width="1340" height="1" stroke="none" stroke-width="0" fill="#ebebeb"></rect><rect x="70" y="415" width="1340" height="1" stroke="none" stroke-width="0" fill="#ebebeb"></rect><rect x="70" y="337" width="1340" height="1" stroke="none" stroke-width="0" fill="#ebebeb"></rect><rect x="70" y="260" width="1340" height="1" stroke="none" stroke-width="0" fill="#ebebeb"></rect><rect x="70" y="183" width="1340" height="1" stroke="none" stroke-width="0" fill="#ebebeb"></rect></g><g><rect x="70" y="608" width="1340" height="1" stroke="none" stroke-width="0" fill="#333333"></rect><rect x="70" y="608" width="1340" height="1" stroke="none" stroke-width="0" fill="#333333"></rect><rect x="70" y="608" width="1340" height="1" stroke="none" stroke-width="0" fill="#333333"></rect></g><g><path d="M70.5,409.64712188413864L102.47611940298508,415.557065097104L134.45223880597015,391.7233176177671L166.42835820895522,346.075134191424L198.4044776119403,301.47490464276444L230.38059701492537,274.4067347630311L262.35671641791043,262.2520007761849L294.3328358208955,250.79503538117336L326.3089552238806,232.01171065234485L358.2850746268657,212.42689001428982L390.26119402985074,204.13125236387378L422.23731343283583,210.11153920241776L454.2134328358209,221.15114840638398L486.189552238806,227.56046754310933L518.165671641791,231.60175527150756L550.1417910447761,245.50807509135115L582.1179104477612,276.6060531378489L614.0940298507463,316.4756340059591L646.0701492537314,347.535637075488L678.0462686567165,361.19589304563914L706.0253731343284,372.54949434570665L738.0014925373134,381.57193465494043L769.9776119402985,407.6219480229458L801.9537313432836,421.4304903702276L833.9298507462687,403.119801510928L865.9059701492538,359.99498512699023L897.8820895522389,317.0400228049938L929.858208955224,291.17251096176176L961.834328358209,276.604370732416L993.810447761194,255.65307162190044L1025.7865671641791,221.6720819740978L1057.762686567164,188.43605802233782L1089.7388059701493,176.12667786411737L1121.7149253731343,190.058572761792L1153.6910447761195,215.81149076465425L1185.6671641791045,235.6781411287218L1217.6432835820897,247.48908518265426L1249.6194029850747,264.542029202512L1281.5955223880599,297.01106912285337L1313.5716417910448,336.55655850169245L1345.5477611940298,362.77651405405516L1377.523880597015,365.6068978241085L1409.5,358.9177331293582" stroke="#0000ff" stroke-width="1.5" fill-opacity="1" fill="none"></path><path d="M70.5,410.0111111111111L102.47611940298508,409.23777777777775L134.45223880597015,410.836L166.42835820895522,340.61733333333336L198.4044776119403,288.80400000000003L230.38059701492537,287.25733333333335L262.35671641791043,264.3666666666667L294.3328358208955,241.88844444444447L326.3089552238806,493.2733333333333L358.2850746268657,216.21377777777775L390.26119402985074,199.09733333333332L422.23731343283583,404.90711111111113L454.2134328358209,301.17733333333337L486.189552238806,223.89555555555557L518.165671641791,338.1942222222222L550.1417910447761,523.5364444444444L582.1179104477612,277.8226666666667L614.0940298507463,311.4884444444445L646.0701492537314,352.52666666666664L678.0462686567165,361.8066666666667L706.0253731343284,362.4768888888889L738.0014925373134,389.9044444444445L769.9776119402985,414.9604444444444L801.9537313432836,416.7648888888889L833.9298507462687,398.6688888888889L865.9059701492538,373.4582222222222L897.8820895522389,309.5808888888889L929.858208955224,299.11511111111116L961.834328358209,266.99600000000004L993.810447761194,258.5408888888889L1025.7865671641791,271.0688888888889L1057.762686567164,195.5915555555556L1089.7388059701493,152.59422222222224L1121.7149253731343,205.90266666666668L1153.6910447761195,279.4724444444445L1185.6671641791045,218.37911111111111L1217.6432835820897,261.9435555555556L1249.6194029850747,259.8297777777778L1281.5955223880599,583.7017777777778L1313.5716417910448,330.4608888888889L1345.5477611940298,372.324L1377.523880597015,582.0004444444445L1409.5,359.8475555555556" stroke="#1974d2" stroke-width="1" fill-opacity="1" fill="none"></path></g></g><g><circle cx="70.5" cy="410.0111111111111" r="2.5" stroke="none" stroke-width="0" fill="#1974d2"></circle><circle cx="102.47611940298508" cy="409.23777777777775" r="2.5" stroke="none" stroke-width="0" fill="#1974d2"></circle><circle cx="134.45223880597015" cy="410.836" r="2.5" stroke="none" stroke-width="0" fill="#1974d2"></circle><circle cx="166.42835820895522" cy="340.61733333333336" r="2.5" stroke="none" stroke-width="0" fill="#1974d2"></circle><circle cx="198.4044776119403" cy="288.80400000000003" r="2.5" stroke="none" stroke-width="0" fill="#1974d2"></circle><circle cx="230.38059701492537" cy="287.25733333333335" r="2.5" stroke="none" stroke-width="0" fill="#1974d2"></circle><circle cx="262.35671641791043" cy="264.3666666666667" r="2.5" stroke="none" stroke-width="0" fill="#1974d2"></circle><circle cx="294.3328358208955" cy="241.88844444444447" r="2.5" stroke="none" stroke-width="0" fill="#1974d2"></circle><circle cx="326.3089552238806" cy="493.2733333333333" r="2.5" stroke="none" stroke-width="0" fill="#1974d2"></circle><circle cx="358.2850746268657" cy="216.21377777777775" r="2.5" stroke="none" stroke-width="0" fill="#1974d2"></circle><circle cx="390.26119402985074" cy="199.09733333333332" r="2.5" stroke="none" stroke-width="0" fill="#1974d2"></circle><circle cx="422.23731343283583" cy="404.90711111111113" r="2.5" stroke="none" stroke-width="0" fill="#1974d2"></circle><circle cx="454.2134328358209" cy="301.17733333333337" r="2.5" stroke="none" stroke-width="0" fill="#1974d2"></circle><circle cx="486.189552238806" cy="223.89555555555557" r="2.5" stroke="none" stroke-width="0" fill="#1974d2"></circle><circle cx="518.165671641791" cy="338.1942222222222" r="2.5" stroke="none" stroke-width="0" fill="#1974d2"></circle><circle cx="550.1417910447761" cy="523.5364444444444" r="2.5" stroke="none" stroke-width="0" fill="#1974d2"></circle><circle cx="582.1179104477612" cy="277.8226666666667" r="2.5" stroke="none" stroke-width="0" fill="#1974d2"></circle><circle cx="614.0940298507463" cy="311.4884444444445" r="2.5" stroke="none" stroke-width="0" fill="#1974d2"></circle><circle cx="646.0701492537314" cy="352.52666666666664" r="2.5" stroke="none" stroke-width="0" fill="#1974d2"></circle><circle cx="678.0462686567165" cy="361.8066666666667" r="2.5" stroke="none" stroke-width="0" fill="#1974d2"></circle><circle cx="706.0253731343284" cy="362.4768888888889" r="2.5" stroke="none" stroke-width="0" fill="#1974d2"></circle><circle cx="738.0014925373134" cy="389.9044444444445" r="2.5" stroke="none" stroke-width="0" fill="#1974d2"></circle><circle cx="769.9776119402985" cy="414.9604444444444" r="2.5" stroke="none" stroke-width="0" fill="#1974d2"></circle><circle cx="801.9537313432836" cy="416.7648888888889" r="2.5" stroke="none" stroke-width="0" fill="#1974d2"></circle><circle cx="833.9298507462687" cy="398.6688888888889" r="2.5" stroke="none" stroke-width="0" fill="#1974d2"></circle><circle cx="865.9059701492538" cy="373.4582222222222" r="2.5" stroke="none" stroke-width="0" fill="#1974d2"></circle><circle cx="897.8820895522389" cy="309.5808888888889" r="2.5" stroke="none" stroke-width="0" fill="#1974d2"></circle><circle cx="929.858208955224" cy="299.11511111111116" r="2.5" stroke="none" stroke-width="0" fill="#1974d2"></circle><circle cx="961.834328358209" cy="266.99600000000004" r="2.5" stroke="none" stroke-width="0" fill="#1974d2"></circle><circle cx="993.810447761194" cy="258.5408888888889" r="2.5" stroke="none" stroke-width="0" fill="#1974d2"></circle><circle cx="1025.7865671641791" cy="271.0688888888889" r="2.5" stroke="none" stroke-width="0" fill="#1974d2"></circle><circle cx="1057.762686567164" cy="195.5915555555556" r="2.5" stroke="none" stroke-width="0" fill="#1974d2"></circle><circle cx="1089.7388059701493" cy="152.59422222222224" r="2.5" stroke="none" stroke-width="0" fill="#1974d2"></circle><circle cx="1121.7149253731343" cy="205.90266666666668" r="2.5" stroke="none" stroke-width="0" fill="#1974d2"></circle><circle cx="1153.6910447761195" cy="279.4724444444445" r="2.5" stroke="none" stroke-width="0" fill="#1974d2"></circle><circle cx="1185.6671641791045" cy="218.37911111111111" r="2.5" stroke="none" stroke-width="0" fill="#1974d2"></circle><circle cx="1217.6432835820897" cy="261.9435555555556" r="2.5" stroke="none" stroke-width="0" fill="#1974d2"></circle><circle cx="1249.6194029850747" cy="259.8297777777778" r="2.5" stroke="none" stroke-width="0" fill="#1974d2"></circle><circle cx="1281.5955223880599" cy="583.7017777777778" r="2.5" stroke="none" stroke-width="0" fill="#1974d2"></circle><circle cx="1313.5716417910448" cy="330.4608888888889" r="2.5" stroke="none" stroke-width="0" fill="#1974d2"></circle><circle cx="1345.5477611940298" cy="372.324" r="2.5" stroke="none" stroke-width="0" fill="#1974d2"></circle><circle cx="1377.523880597015" cy="582.0004444444445" r="2.5" stroke="none" stroke-width="0" fill="#1974d2"></circle><circle cx="1409.5" cy="359.8475555555556" r="2.5" stroke="none" stroke-width="0" fill="#1974d2"></circle><circle cx="70.5" cy="608.5" r="2.5" stroke="none" stroke-width="0" fill="#808080"></circle><circle cx="102.47611940298508" cy="608.5" r="2.5" stroke="none" stroke-width="0" fill="#808080"></circle><circle cx="134.45223880597015" cy="608.5" r="2.5" stroke="none" stroke-width="0" fill="#808080"></circle><circle cx="166.42835820895522" cy="608.5" r="2.5" stroke="none" stroke-width="0" fill="#808080"></circle><circle cx="198.4044776119403" cy="608.5" r="2.5" stroke="none" stroke-width="0" fill="#808080"></circle><circle cx="230.38059701492537" cy="608.5" r="2.5" stroke="none" stroke-width="0" fill="#808080"></circle><circle cx="262.35671641791043" cy="144.5" r="2.5" stroke="none" stroke-width="0" fill="#808080"></circle><circle cx="294.3328358208955" cy="453.83333333333337" r="2.5" stroke="none" stroke-width="0" fill="#808080"></circle><circle cx="326.3089552238806" cy="144.5" r="2.5" stroke="none" stroke-width="0" fill="#808080"></circle><circle cx="358.2850746268657" cy="608.5" r="2.5" stroke="none" stroke-width="0" fill="#808080"></circle><circle cx="390.26119402985074" cy="608.5" r="2.5" stroke="none" stroke-width="0" fill="#808080"></circle><circle cx="422.23731343283583" cy="144.5" r="2.5" stroke="none" stroke-width="0" fill="#808080"></circle><circle cx="454.2134328358209" cy="144.5" r="2.5" stroke="none" stroke-width="0" fill="#808080"></circle><circle cx="486.189552238806" cy="608.5" r="2.5" stroke="none" stroke-width="0" fill="#808080"></circle><circle cx="518.165671641791" cy="144.5" r="2.5" stroke="none" stroke-width="0" fill="#808080"></circle><circle cx="550.1417910447761" cy="144.5" r="2.5" stroke="none" stroke-width="0" fill="#808080"></circle><circle cx="582.1179104477612" cy="608.5" r="2.5" stroke="none" stroke-width="0" fill="#808080"></circle><circle cx="614.0940298507463" cy="608.5" r="2.5" stroke="none" stroke-width="0" fill="#808080"></circle><circle cx="646.0701492537314" cy="608.5" r="2.5" stroke="none" stroke-width="0" fill="#808080"></circle><circle cx="678.0462686567165" cy="608.5" r="2.5" stroke="none" stroke-width="0" fill="#808080"></circle><circle cx="706.0253731343284" cy="608.5" r="2.5" stroke="none" stroke-width="0" fill="#808080"></circle><circle cx="738.0014925373134" cy="453.83333333333337" r="2.5" stroke="none" stroke-width="0" fill="#808080"></circle><circle cx="769.9776119402985" cy="608.5" r="2.5" stroke="none" stroke-width="0" fill="#808080"></circle><circle cx="801.9537313432836" cy="453.83333333333337" r="2.5" stroke="none" stroke-width="0" fill="#808080"></circle><circle cx="833.9298507462687" cy="453.83333333333337" r="2.5" stroke="none" stroke-width="0" fill="#808080"></circle><circle cx="865.9059701492538" cy="144.5" r="2.5" stroke="none" stroke-width="0" fill="#808080"></circle><circle cx="897.8820895522389" cy="453.83333333333337" r="2.5" stroke="none" stroke-width="0" fill="#808080"></circle><circle cx="929.858208955224" cy="144.5" r="2.5" stroke="none" stroke-width="0" fill="#808080"></circle><circle cx="961.834328358209" cy="453.83333333333337" r="2.5" stroke="none" stroke-width="0" fill="#808080"></circle><circle cx="993.810447761194" cy="608.5" r="2.5" stroke="none" stroke-width="0" fill="#808080"></circle><circle cx="1025.7865671641791" cy="453.83333333333337" r="2.5" stroke="none" stroke-width="0" fill="#808080"></circle><circle cx="1057.762686567164" cy="608.5" r="2.5" stroke="none" stroke-width="0" fill="#808080"></circle><circle cx="1089.7388059701493" cy="453.83333333333337" r="2.5" stroke="none" stroke-width="0" fill="#808080"></circle><circle cx="1121.7149253731343" cy="608.5" r="2.5" stroke="none" stroke-width="0" fill="#808080"></circle><circle cx="1153.6910447761195" cy="453.83333333333337" r="2.5" stroke="none" stroke-width="0" fill="#808080"></circle><circle cx="1185.6671641791045" cy="453.83333333333337" r="2.5" stroke="none" stroke-width="0" fill="#808080"></circle><circle cx="1217.6432835820897" cy="453.83333333333337" r="2.5" stroke="none" stroke-width="0" fill="#808080"></circle><circle cx="1249.6194029850747" cy="608.5" r="2.5" stroke="none" stroke-width="0" fill="#808080"></circle><circle cx="1281.5955223880599" cy="144.5" r="2.5" stroke="none" stroke-width="0" fill="#808080"></circle><circle cx="1313.5716417910448" cy="608.5" r="2.5" stroke="none" stroke-width="0" fill="#808080"></circle><circle cx="1345.5477611940298" cy="144.5" r="2.5" stroke="none" stroke-width="0" fill="#808080"></circle><circle cx="1377.523880597015" cy="144.5" r="2.5" stroke="none" stroke-width="0" fill="#808080"></circle><circle cx="1409.5" cy="608.5" r="2.5" stroke="none" stroke-width="0" fill="#808080"></circle><path d="M72.26776695296637,374.7322330470336L72.26776695296637,378.2677669529664L68.73223304703363,378.2677669529664L68.73223304703363,374.7322330470336Z" stroke="none" stroke-width="0" fill="#ff0099"></path><path d="M104.24388635595145,374.7322330470336L104.24388635595145,378.2677669529664L100.70835245001871,378.2677669529664L100.70835245001871,374.7322330470336Z" stroke="none" stroke-width="0" fill="#ff0099"></path><path d="M136.2200057589365,374.7322330470336L136.2200057589365,378.2677669529664L132.6844718530038,378.2677669529664L132.68447185300377,374.7322330470336Z" stroke="none" stroke-width="0" fill="#ff0099"></path><path d="M168.1961251619216,374.7322330470336L168.1961251619216,378.2677669529664L164.66059125598886,378.2677669529664L164.66059125598883,374.7322330470336Z" stroke="none" stroke-width="0" fill="#ff0099"></path><path d="M200.1722445649067,374.7322330470336L200.1722445649067,378.2677669529664L196.63671065897395,378.2677669529664L196.63671065897393,374.7322330470336Z" stroke="none" stroke-width="0" fill="#ff0099"></path><path d="M232.14836396789173,374.7322330470336L232.14836396789173,378.2677669529664L228.61283006195902,378.2677669529664L228.612830061959,374.7322330470336Z" stroke="none" stroke-width="0" fill="#ff0099"></path><path d="M264.1244833708768,374.7322330470336L264.1244833708768,378.2677669529664L260.58894946494405,378.2677669529664L260.58894946494405,374.7322330470336Z" stroke="none" stroke-width="0" fill="#ff0099"></path><path d="M296.1006027738619,374.7322330470336L296.1006027738619,378.2677669529664L292.56506886792914,378.2677669529664L292.56506886792914,374.7322330470336Z" stroke="none" stroke-width="0" fill="#ff0099"></path><path d="M360.0528415798321,374.7322330470336L360.0528415798321,378.2677669529664L356.5173076738993,378.2677669529664L356.5173076738993,374.7322330470336Z" stroke="none" stroke-width="0" fill="#ff0099"></path><path d="M392.0289609828171,374.7322330470336L392.0289609828171,378.2677669529664L388.49342707688436,378.2677669529664L388.49342707688436,374.7322330470336Z" stroke="none" stroke-width="0" fill="#ff0099"></path><path d="M487.9573191917724,374.7322330470336L487.9573191917724,378.2677669529664L484.42178528583963,378.2677669529664L484.42178528583963,374.7322330470336Z" stroke="none" stroke-width="0" fill="#ff0099"></path><path d="M583.8856774007276,374.7322330470336L583.8856774007276,378.2677669529664L580.3501434947949,378.2677669529664L580.3501434947949,374.7322330470336Z" stroke="none" stroke-width="0" fill="#ff0099"></path><path d="M615.8617968037127,374.7322330470336L615.8617968037127,378.2677669529664L612.32626289778,378.2677669529664L612.32626289778,374.7322330470336Z" stroke="none" stroke-width="0" fill="#ff0099"></path><path d="M647.8379162066977,374.7322330470336L647.8379162066977,378.2677669529664L644.3023823007651,378.2677669529664L644.3023823007651,374.7322330470336Z" stroke="none" stroke-width="0" fill="#ff0099"></path><path d="M679.8140356096828,374.7322330470336L679.8140356096828,378.2677669529664L676.2785017037502,378.2677669529664L676.2785017037502,374.7322330470336Z" stroke="none" stroke-width="0" fill="#ff0099"></path><path d="M707.7931400872948,374.7322330470336L707.7931400872948,378.2677669529664L704.2576061813621,378.2677669529664L704.2576061813621,374.7322330470336Z" stroke="none" stroke-width="0" fill="#ff0099"></path><path d="M739.7692594902798,374.7322330470336L739.7692594902798,378.2677669529664L736.2337255843471,378.2677669529664L736.2337255843471,374.7322330470336Z" stroke="none" stroke-width="0" fill="#ff0099"></path><path d="M771.7453788932648,374.7322330470336L771.7453788932648,378.2677669529664L768.2098449873322,378.2677669529664L768.2098449873322,374.7322330470336Z" stroke="none" stroke-width="0" fill="#ff0099"></path><path d="M803.7214982962499,374.7322330470336L803.7214982962499,378.2677669529664L800.1859643903173,378.2677669529664L800.1859643903173,374.7322330470336Z" stroke="none" stroke-width="0" fill="#ff0099"></path><path d="M835.697617699235,374.7322330470336L835.697617699235,378.2677669529664L832.1620837933024,378.2677669529664L832.1620837933024,374.7322330470336Z" stroke="none" stroke-width="0" fill="#ff0099"></path><path d="M867.6737371022201,374.7322330470336L867.6737371022201,378.2677669529664L864.1382031962875,378.2677669529664L864.1382031962875,374.7322330470336Z" stroke="none" stroke-width="0" fill="#ff0099"></path><path d="M899.6498565052052,374.7322330470336L899.6498565052052,378.2677669529664L896.1143225992726,378.2677669529664L896.1143225992726,374.7322330470336Z" stroke="none" stroke-width="0" fill="#ff0099"></path><path d="M931.6259759081903,374.7322330470336L931.6259759081903,378.2677669529664L928.0904420022576,378.2677669529664L928.0904420022576,374.7322330470336Z" stroke="none" stroke-width="0" fill="#ff0099"></path><path d="M963.6020953111753,374.7322330470336L963.6020953111753,378.2677669529664L960.0665614052426,378.2677669529664L960.0665614052426,374.7322330470336Z" stroke="none" stroke-width="0" fill="#ff0099"></path><path d="M995.5782147141604,374.7322330470336L995.5782147141604,378.2677669529664L992.0426808082277,378.2677669529664L992.0426808082277,374.7322330470336Z" stroke="none" stroke-width="0" fill="#ff0099"></path><path d="M1059.5304535201305,374.7322330470336L1059.5304535201305,378.2677669529664L1055.9949196141977,378.2677669529664L1055.9949196141977,374.7322330470336Z" stroke="none" stroke-width="0" fill="#ff0099"></path><path d="M1091.5065729231158,374.7322330470336L1091.5065729231158,378.2677669529664L1087.9710390171829,378.2677669529664L1087.9710390171829,374.7322330470336Z" stroke="none" stroke-width="0" fill="#ff0099"></path><path d="M1123.4826923261007,374.7322330470336L1123.4826923261007,378.2677669529664L1119.9471584201679,378.2677669529664L1119.9471584201679,374.7322330470336Z" stroke="none" stroke-width="0" fill="#ff0099"></path><path d="M1187.434931132071,374.7322330470336L1187.434931132071,378.2677669529664L1183.899397226138,378.2677669529664L1183.899397226138,374.7322330470336Z" stroke="none" stroke-width="0" fill="#ff0099"></path><path d="M1219.4110505350561,374.7322330470336L1219.4110505350561,378.2677669529664L1215.8755166291232,378.2677669529664L1215.8755166291232,374.7322330470336Z" stroke="none" stroke-width="0" fill="#ff0099"></path><path d="M1251.387169938041,374.7322330470336L1251.387169938041,378.2677669529664L1247.8516360321082,378.2677669529664L1247.8516360321082,374.7322330470336Z" stroke="none" stroke-width="0" fill="#ff0099"></path><path d="M1315.3394087440113,374.7322330470336L1315.3394087440113,378.2677669529664L1311.8038748380784,378.2677669529664L1311.8038748380784,374.7322330470336Z" stroke="none" stroke-width="0" fill="#ff0099"></path><path d="M1347.3155281469963,374.7322330470336L1347.3155281469963,378.2677669529664L1343.7799942410634,378.2677669529664L1343.7799942410634,374.7322330470336Z" stroke="none" stroke-width="0" fill="#ff0099"></path><path d="M1411.2677669529664,374.7322330470336L1411.2677669529664,378.2677669529664L1407.7322330470336,378.2677669529664L1407.7322330470336,374.7322330470336Z" stroke="none" stroke-width="0" fill="#ff0099"></path></g><g><g><g><text text-anchor="start" x="80" y="167.6" font-family="Arial" font-size="16" font-weight="bold" stroke="#ffffff" stroke-width="3" fill="#000000" aria-hidden="true">Lon/Lat: 111.00/30.00 | HANTS-GEE</text><text text-anchor="start" x="80" y="167.6" font-family="Arial" font-size="16" font-weight="bold" stroke="none" stroke-width="0" fill="#000000">Lon/Lat: 111.00/30.00 | HANTS-GEE</text></g><rect x="80" y="154" width="267" height="16" stroke="none" stroke-width="0" fill-opacity="0" fill="#ffffff"></rect></g></g><g><g><text text-anchor="middle" x="705.3592039800996" y="632.6" font-family="Arial" font-size="16" stroke="none" stroke-width="0" fill="#444444">2001</text></g><g><text text-anchor="middle" x="93.81592039800995" y="632.6" font-family="Arial" font-size="16" stroke="none" stroke-width="0" fill="#444444">M</text></g><g><text text-anchor="middle" x="155.76965174129356" y="632.6" font-family="Arial" font-size="16" stroke="none" stroke-width="0" fill="#444444">A</text></g><g><text text-anchor="middle" x="215.72487562189056" y="632.6" font-family="Arial" font-size="16" stroke="none" stroke-width="0" fill="#444444">M</text></g><g><text text-anchor="middle" x="277.67860696517414" y="632.6" font-family="Arial" font-size="16" stroke="none" stroke-width="0" fill="#444444">J</text></g><g><text text-anchor="middle" x="337.6338308457712" y="632.6" font-family="Arial" font-size="16" stroke="none" stroke-width="0" fill="#444444">J</text></g><g><text text-anchor="middle" x="399.5875621890547" y="632.6" font-family="Arial" font-size="16" stroke="none" stroke-width="0" fill="#444444">A</text></g><g><text text-anchor="middle" x="461.54129353233833" y="632.6" font-family="Arial" font-size="16" stroke="none" stroke-width="0" fill="#444444">S</text></g><g><text text-anchor="middle" x="521.4965174129354" y="632.6" font-family="Arial" font-size="16" stroke="none" stroke-width="0" fill="#444444">O</text></g><g><text text-anchor="middle" x="583.4502487562189" y="632.6" font-family="Arial" font-size="16" stroke="none" stroke-width="0" fill="#444444">N</text></g><g><text text-anchor="middle" x="643.405472636816" y="632.6" font-family="Arial" font-size="16" stroke="none" stroke-width="0" fill="#444444">D</text></g><g><text text-anchor="middle" x="767.3129353233832" y="632.6" font-family="Arial" font-size="16" stroke="none" stroke-width="0" fill="#444444">F</text></g><g><text text-anchor="middle" x="823.271144278607" y="632.6" font-family="Arial" font-size="16" stroke="none" stroke-width="0" fill="#444444">M</text></g><g><text text-anchor="middle" x="885.2248756218906" y="632.6" font-family="Arial" font-size="16" stroke="none" stroke-width="0" fill="#444444">A</text></g><g><text text-anchor="middle" x="945.1800995024876" y="632.6" font-family="Arial" font-size="16" stroke="none" stroke-width="0" fill="#444444">M</text></g><g><text text-anchor="middle" x="1007.1338308457712" y="632.6" font-family="Arial" font-size="16" stroke="none" stroke-width="0" fill="#444444">J</text></g><g><text text-anchor="middle" x="1067.0890547263682" y="632.6" font-family="Arial" font-size="16" stroke="none" stroke-width="0" fill="#444444">J</text></g><g><text text-anchor="middle" x="1129.0427860696518" y="632.6" font-family="Arial" font-size="16" stroke="none" stroke-width="0" fill="#444444">A</text></g><g><text text-anchor="middle" x="1190.9965174129354" y="632.6" font-family="Arial" font-size="16" stroke="none" stroke-width="0" fill="#444444">S</text></g><g><text text-anchor="middle" x="1250.9517412935325" y="632.6" font-family="Arial" font-size="16" stroke="none" stroke-width="0" fill="#444444">O</text></g><g><text text-anchor="middle" x="1312.905472636816" y="632.6" font-family="Arial" font-size="16" stroke="none" stroke-width="0" fill="#444444">N</text></g><g><text text-anchor="middle" x="1372.860696517413" y="632.6" font-family="Arial" font-size="16" stroke="none" stroke-width="0" fill="#444444">D</text></g><g><text text-anchor="end" x="59.33333333333333" y="614.1" font-family="Arial" font-size="16" stroke="none" stroke-width="0" fill="#0000ff">0.0</text></g><g><text text-anchor="end" x="59.33333333333333" y="562.5444" font-family="Arial" font-size="16" stroke="none" stroke-width="0" fill="#0000ff">0.1</text></g><g><text text-anchor="end" x="59.33333333333333" y="510.9889" font-family="Arial" font-size="16" stroke="none" stroke-width="0" fill="#0000ff">0.2</text></g><g><text text-anchor="end" x="59.33333333333333" y="459.43330000000003" font-family="Arial" font-size="16" stroke="none" stroke-width="0" fill="#0000ff">0.3</text></g><g><text text-anchor="end" x="59.33333333333333" y="407.87780000000004" font-family="Arial" font-size="16" stroke="none" stroke-width="0" fill="#0000ff">0.4</text></g><g><text text-anchor="end" x="59.33333333333333" y="356.3222" font-family="Arial" font-size="16" stroke="none" stroke-width="0" fill="#0000ff">0.5</text></g><g><text text-anchor="end" x="59.33333333333333" y="304.7667" font-family="Arial" font-size="16" stroke="none" stroke-width="0" fill="#0000ff">0.6</text></g><g><text text-anchor="end" x="59.33333333333333" y="253.2111" font-family="Arial" font-size="16" stroke="none" stroke-width="0" fill="#0000ff">0.7</text></g><g><text text-anchor="end" x="59.33333333333333" y="201.6556" font-family="Arial" font-size="16" stroke="none" stroke-width="0" fill="#0000ff">0.8</text></g><g><text text-anchor="end" x="59.33333333333333" y="150.1" font-family="Arial" font-size="16" stroke="none" stroke-width="0" fill="#0000ff">0.9</text></g><g><text text-anchor="start" x="1414" y="614.1" font-family="Arial" font-size="16" stroke="none" stroke-width="0" fill="#808080">0.0</text></g><g><text text-anchor="start" x="1414" y="536.7667" font-family="Arial" font-size="16" stroke="none" stroke-width="0" fill="#808080">0.5</text></g><g><text text-anchor="start" x="1414" y="459.43330000000003" font-family="Arial" font-size="16" stroke="none" stroke-width="0" fill="#808080">1.0</text></g><g><text text-anchor="start" x="1414" y="382.1" font-family="Arial" font-size="16" stroke="none" stroke-width="0" fill="#808080">1.5</text></g><g><text text-anchor="start" x="1414" y="304.7667" font-family="Arial" font-size="16" stroke="none" stroke-width="0" fill="#808080">2.0</text></g><g><text text-anchor="start" x="1414" y="227.4333" font-family="Arial" font-size="16" stroke="none" stroke-width="0" fill="#808080">2.5</text></g><g><text text-anchor="start" x="1414" y="150.1" font-family="Arial" font-size="16" stroke="none" stroke-width="0" fill="#808080">3.0</text></g></g></g><g><g><text text-anchor="middle" x="24.266666666666666" y="376.5" font-family="Arial" font-size="16" font-style="italic" transform="rotate(-90 24.266666666666666 376.5)" stroke="none" stroke-width="0" fill="#0000ff">NDVI (MODIS)</text><path d="M10.666666666666648,609L10.666666666666677,144L26.66666666666668,144L26.66666666666665,609Z" stroke="none" stroke-width="0" fill-opacity="0" fill="#ffffff"></path></g><g><text text-anchor="middle" x="1453.6" y="376.5" font-family="Arial" font-size="16" font-style="italic" transform="rotate(-90 1453.6 376.5)" stroke="none" stroke-width="0" fill="#808080">QA</text><path d="M1440,609L1440,143.99999999999997L1456,143.99999999999997L1456,609Z" stroke="none" stroke-width="0" fill-opacity="0" fill="#ffffff"></path></g></g><g></g></svg>